<svg width="24" height="24" viewBox="0 0 24 24" fill="none" xmlns="http://www.w3.org/2000/svg">
<g clip-path="url(#clip0_17_20)">
<path d="M8 24.2319C10.208 24.2319 12 22.4399 12 20.2319V16.2319H8C5.792 16.2319 4 18.0239 4 20.2319C4 22.4399 5.792 24.2319 8 24.2319Z" fill="#0ACF83"/>
<path d="M4 12.2319C4 10.0239 5.792 8.23193 8 8.23193H12V16.2319H8C5.792 16.2319 4 14.4399 4 12.2319Z" fill="#A259FF"/>
<path d="M4 4.23193C4 2.02393 5.792 0.231934 8 0.231934H12V8.23193H8C5.792 8.23193 4 6.43993 4 4.23193Z" fill="#F24E1E"/>
<path d="M12 0.231934H16C18.208 0.231934 20 2.02393 20 4.23193C20 6.43993 18.208 8.23193 16 8.23193H12V0.231934Z" fill="#FF7262"/>
<path d="M20 12.2319C20 14.4399 18.208 16.2319 16 16.2319C13.792 16.2319 12 14.4399 12 12.2319C12 10.0239 13.792 8.23193 16 8.23193C18.208 8.23193 20 10.0239 20 12.2319Z" fill="#1ABCFE"/>
</g>
<defs>
<clipPath id="clip0_17_20">
<rect width="24" height="24" fill="white"/>
</clipPath>
</defs>
</svg>
