<svg xmlns="http://www.w3.org/2000/svg" width="93" height="24" viewBox="0 0 93 24"><rect width="100%" height="100%" fill="#DDDDDD"/><path fill="#999999" d="M28.065 10.265q0 .72.38 1.11.37.38 1.06.38.36 0 .65-.12.28-.11.47-.31.19-.2.29-.47.1-.27.1-.58 0-.35-.11-.63t-.3-.47q-.2-.2-.47-.3-.28-.1-.6-.1-.34 0-.61.11-.27.11-.46.31t-.29.47q-.11.27-.11.6Zm-.72 6.07 2.69-3.37q.1-.12.19-.24l.18-.24q-.3.19-.66.29-.36.1-.76.1-.45 0-.88-.16-.43-.15-.77-.47-.33-.31-.54-.78-.21-.46-.21-1.09 0-.58.22-1.09.21-.51.6-.89.39-.39.94-.61.55-.22 1.21-.22.66 0 1.19.21.53.21.91.59.37.37.58.9.2.53.2 1.16 0 .4-.07.76t-.2.69q-.12.34-.3.66-.18.31-.41.63l-1.98 2.83q-.1.14-.31.24-.2.1-.46.1h-1.36Zm7.13-6.12-.78-.14q.09-.62.35-1.09.26-.47.65-.79.38-.31.88-.47.5-.16 1.08-.16.6 0 1.08.17.49.17.83.47.34.31.52.71.19.41.19.89 0 .41-.1.73-.09.31-.26.54-.18.24-.44.4-.25.16-.58.27.78.25 1.17.75.38.5.38 1.27 0 .64-.24 1.14-.24.5-.65.84-.41.34-.94.51-.54.18-1.14.18-.65 0-1.14-.15-.49-.15-.85-.45-.36-.29-.61-.72-.25-.42-.43-.98l.65-.27q.26-.11.49-.06.22.05.32.24.11.21.24.42.13.2.31.36.18.16.42.26.25.1.58.1.38 0 .66-.13.28-.12.47-.32.19-.19.29-.44.09-.24.09-.49 0-.31-.07-.56-.06-.26-.27-.44-.21-.18-.61-.28-.39-.1-1.05-.1v-1.06q.55 0 .91-.1t.57-.27q.21-.17.3-.41.08-.24.08-.53 0-.61-.34-.93-.34-.31-.91-.31-.27 0-.49.07-.22.08-.4.21-.18.14-.3.32t-.18.39q-.1.28-.26.37-.17.09-.47.04Zm14.76 4.13-.78.78-2.04-2.04-2.05 2.05-.79-.77 2.06-2.06-1.96-1.96.78-.78 1.96 1.96 1.94-1.95.79.78-1.95 1.95 2.04 2.04Zm7.23.61h2.22q.24 0 .38.13.14.14.14.36v.89h-5.95v-.49q0-.15.07-.32.06-.16.2-.29l2.63-2.64q.33-.34.59-.65.26-.3.44-.6.17-.3.26-.61.1-.31.1-.65 0-.31-.09-.55-.09-.24-.26-.4-.16-.16-.39-.24-.24-.08-.52-.08-.27 0-.49.07-.23.08-.4.21-.18.14-.3.32t-.18.39q-.1.28-.26.37-.16.09-.47.04l-.78-.14q.09-.62.35-1.09.26-.47.65-.79.38-.31.88-.47.5-.16 1.08-.16.6 0 1.1.17.5.18.85.51.35.32.55.78.2.45.2 1.01 0 .48-.14.89-.14.41-.38.78-.24.37-.55.72-.32.35-.67.71l-1.96 1.99q.29-.08.57-.12.27-.05.53-.05Zm4.93-1.89h2.64v-2.84q0-.4.05-.89l-2.69 3.73Zm3.93 0h1.09v.86q0 .12-.08.2-.08.09-.22.09h-.79v2.12h-1.29v-2.12h-3.66q-.15 0-.27-.09-.11-.09-.14-.23l-.16-.75 4.11-5.49h1.41v5.41Z"/></svg>